<?xml version="1.0" standalone="no"?>
<!DOCTYPE svg PUBLIC "-//W3C//DTD SVG 20010904//EN"
 "http://www.w3.org/TR/2001/REC-SVG-20010904/DTD/svg10.dtd">
<svg version="1.0" xmlns="http://www.w3.org/2000/svg"
 width="500.000000pt" height="500.000000pt" viewBox="0 0 500.000000 500.000000"
 preserveAspectRatio="xMidYMid meet">
<metadata>
Created by potrace 1.14, written by Peter Selinger 2001-2017
</metadata>
<g transform="translate(0.000000,500.000000) scale(0.100000,-0.100000)"
fill="#000000" stroke="none">
<path d="M3225 4894 c-161 -37 -280 -88 -382 -165 -61 -47 -81 -66 -147 -144
-59 -69 -120 -226 -132 -339 -2 -28 -6 -51 -8 -53 -2 -2 -13 34 -26 79 -35
131 -41 148 -48 144 -4 -2 -45 -15 -92 -30 -47 -15 -94 -31 -105 -35 -11 -5
-47 -19 -80 -32 -33 -12 -61 -23 -63 -25 -2 -1 24 -51 59 -110 34 -59 73 -133
86 -163 13 -31 28 -65 33 -76 31 -66 75 -315 56 -315 -3 0 -14 4 -24 9 -39 22
-170 55 -267 68 -61 9 -283 9 -340 0 -319 -46 -636 -218 -915 -497 -246 -245
-382 -604 -381 -1008 0 -104 8 -230 17 -275 3 -16 7 -38 9 -50 9 -56 18 -97
32 -152 8 -33 16 -67 18 -75 19 -84 106 -293 172 -413 65 -117 68 -122 73
-127 3 -3 23 -31 44 -63 105 -160 278 -333 496 -495 91 -68 287 -169 428 -221
121 -45 297 -91 407 -107 17 -2 40 -6 52 -8 95 -19 443 -28 573 -14 64 7 146
18 175 24 11 2 45 9 75 14 30 6 66 15 80 20 14 5 36 11 50 14 68 12 293 100
384 151 22 12 57 31 76 42 19 10 61 37 94 58 32 22 66 45 74 50 9 6 25 18 36
29 12 10 32 25 46 34 84 55 334 309 374 381 5 9 12 18 16 21 25 18 144 228
193 340 29 68 108 314 107 338 0 1 0 3 1 5 1 4 7 41 15 87 4 25 9 52 10 60 10
52 27 299 27 385 0 74 -12 280 -18 305 -3 14 -8 41 -11 60 -6 32 -34 118 -54
165 -18 43 -80 171 -92 190 -106 165 -176 252 -290 360 -157 148 -340 261
-523 323 -83 28 -118 36 -248 61 -58 11 -293 11 -351 0 -22 -4 -54 -9 -71 -12
-71 -11 -204 -50 -276 -81 l-36 -15 0 134 c0 89 4 135 11 136 134 12 256 33
284 48 9 5 22 9 27 10 80 8 266 119 350 208 53 57 123 165 149 230 13 32 27
67 31 78 28 70 52 216 60 367 l5 87 -133 -1 c-74 0 -158 -6 -192 -14z"/>
</g>
</svg>
